PathFileType	4	(X/Y/Z)	s03c0202.trc
DataRate	CameraRate	NumFrames	NumMarkers	Units	OrigDataRate	OrigDataStartFrame	OrigNumFrames
200	200	4	52	mm	200	1500	2000
Frame#	Time	racr			lacr			c7			jug			rlel			rdr			llel			ldr			s2			lic			ric			lasi			rasi			rpsi			lpsi			rgt			lgt			rth1			rth2			rth3			rth4			rlfc			rmfc			rsh1			rsh2			rsh3			rsh4			rlmal			rmmal			rcal			rtoe			rmt5			rmt1			lth1			lth2			lth4			lth3			llfc			lmfc			lsh1			lsh2			lsh3			lsh4			llmal			lmmal			lcal			ltoe			lmt1			lmt5			SBIKE			LBIKE			RBIKE			
		X1	Y1	Z1	X2	Y2	Z2	X3	Y3	Z3	X4	Y4	Z4	X5	Y5	Z5	X6	Y6	Z6	X7	Y7	Z7	X8	Y8	Z8	X9	Y9	Z9	X10	Y10	Z10	X11	Y11	Z11	X12	Y12	Z12	X13	Y13	Z13	X14	Y14	Z14	X15	Y15	Z15	X16	Y16	Z16	X17	Y17	Z17	X18	Y18	Z18	X19	Y19	Z19	X20	Y20	Z20	X21	Y21	Z21	X22	Y22	Z22	X23	Y23	Z23	X24	Y24	Z24	X25	Y25	Z25	X26	Y26	Z26	X27	Y27	Z27	X28	Y28	Z28	X29	Y29	Z29	X30	Y30	Z30	X31	Y31	Z31	X32	Y32	Z32	X33	Y33	Z33	X34	Y34	Z34	X35	Y35	Z35	X36	Y36	Z36	X37	Y37	Z37	X38	Y38	Z38	X39	Y39	Z39	X40	Y40	Z40	X41	Y41	Z41	X42	Y42	Z42	X43	Y43	Z43	X44	Y44	Z44	X45	Y45	Z45	X46	Y46	Z46	X47	Y47	Z47	X48	Y48	Z48	X49	Y49	Z49	X50	Y50	Z50	X51	Y51	Z51	X52	Y52	Z52	
1500	7.5000	466.480659	1440.429326	-98.751393	440.749502	1454.398692	-420.726351	375.403424	1527.565556	-251.859551	418.149874	1360.816855	-257.441172	522.499806	1191.579643	32.476094	721.790812	986.455664	-34.871311	503.836381	1195.418949	-514.111020	712.797695	976.481479	-471.013897	-117.693366	1198.025100	-241.285489	52.547863	1231.645551	-426.176307	52.782640	1237.096696	-61.637852	77.033466	1158.936720	-387.955191	77.602328	1176.358594	-107.769405	-94.776383	1251.553388	-199.068909	-88.673966	1248.811379	-282.122381	10.121063	1154.965274	-46.786376	-1.648113	1102.875053	-439.966652	142.472466	1076.345253	-29.856651	231.469416	1075.653569	-30.085885	307.127118	1034.157230	-32.675173	240.930482	1109.005369	-44.966142	421.987984	970.563988	-54.585676	427.656341	955.673446	-180.926987	348.348792	823.030026	-37.785549	327.509763	739.295063	-53.714618	262.044905	676.917448	-59.357639	352.298138	727.115616	-80.202558	193.929282	564.427602	-80.292593	220.764919	573.659302	-169.696176	124.502484	519.056072	-122.135308	435.306141	506.941741	-117.437679	314.671860	495.129988	-49.611492	341.869713	507.921676	-163.354939	68.077616	957.488763	-459.022903	125.066948	892.314916	-463.047518	158.049949	908.888017	-461.643356	144.124389	805.965038	-449.285000	218.111405	697.928379	-432.607300	224.747455	688.315773	-311.371876	141.263893	540.682253	-453.290979	135.176668	458.150734	-435.450625	83.729150	383.018018	-425.675689	164.916465	449.794334	-410.380696	33.678344	266.822785	-404.148151	70.842884	277.054272	-315.362857	-33.418194	223.177650	-354.190745	274.603250	191.748972	-362.184595	183.329736	197.510682	-318.335574	151.961876	176.584251	-431.717915	-218.037412	943.964548	-234.942656	-11.961311	80.812266	-435.565713	-11.999189	80.949350	-35.128778	
1501	7.5050	466.079273	1440.474747	-98.456420	440.438808	1454.215877	-420.564454	374.775228	1527.312275	-251.788336	417.887981	1360.454784	-257.200943	522.367872	1191.437310	32.320850	721.865267	986.466013	-35.021940	503.923092	1195.289267	-513.771936	713.264687	976.526188	-471.156167	-118.301856	1196.765454	-243.495360	52.896103	1230.666420	-426.107932	52.197287	1236.504564	-61.616234	77.259896	1157.945071	-387.775516	77.533332	1175.722549	-107.794872	-94.899775	1250.539210	-199.571914	-88.686726	1247.858488	-282.607226	9.778734	1154.580406	-46.904491	-1.133887	1101.899898	-440.061141	142.264203	1076.518626	-29.627636	231.263312	1076.022439	-29.813430	307.050307	1034.788447	-32.175840	240.710292	1109.364909	-44.735659	422.432278	971.405265	-54.055080	428.482335	956.514436	-180.462753	348.995910	823.698444	-37.376836	328.216681	739.996413	-53.352801	263.058596	677.476672	-59.018267	353.025476	727.810272	-79.786191	194.651151	565.148034	-80.097826	221.545581	574.335222	-169.598829	125.031118	520.047707	-122.170322	435.748083	506.384155	-117.450514	315.267911	495.122107	-49.772121	342.264416	507.916813	-163.330461	68.491469	956.540229	-458.960664	125.449925	891.352328	-462.858070	158.436665	907.922173	-461.405163	144.462298	804.999024	-449.088054	218.488125	697.100407	-432.344035	224.552265	687.505886	-311.045551	141.197189	540.140174	-453.035699	134.953107	457.554148	-435.251815	83.417083	382.509101	-425.667858	164.678502	449.253102	-410.238700	33.176562	266.254174	-404.101786	70.107731	276.576145	-315.269185	-33.793481	222.239553	-354.117711	274.400762	192.190694	-362.105393	183.014312	197.556721	-318.356650	151.725719	176.512511	-431.712641	-218.056969	943.953385	-235.002150	-11.965717	80.795519	-435.572189	-11.992791	80.935712	-35.129340	
1502	7.5100	465.592498	1440.496564	-98.167723	440.095935	1454.012815	-420.382814	374.095881	1527.040788	-251.771471	417.609422	1360.058611	-256.915275	522.162151	1191.258484	32.166537	721.936818	986.463588	-35.079924	503.990229	1195.060289	-513.405761	713.699181	976.593456	-471.241481	-118.670257	1195.622003	-243.273534	53.239638	1229.757099	-426.093307	51.616186	1235.960170	-61.541595	77.446542	1157.100662	-387.627021	77.555420	1175.209224	-107.901194	-95.148632	1249.600819	-200.112192	-88.687526	1246.851183	-283.105033	9.447360	1154.245509	-46.998934	-0.732792	1100.957309	-440.107427	142.103490	1076.611433	-29.433056	231.092282	1076.420208	-29.528202	306.992925	1035.410760	-31.727215	240.415899	1109.802597	-44.432800	422.881826	972.240665	-53.449251	429.280751	957.347840	-180.027058	349.659792	824.348957	-36.867543	328.859767	740.656616	-52.957862	263.501708	678.169633	-58.789791	353.741696	728.482509	-79.329465	195.324953	565.931400	-79.945373	222.273475	575.143338	-169.347086	125.418548	521.295585	-122.030163	436.051314	505.858310	-117.497521	315.529672	495.205727	-49.750404	342.582381	507.935481	-163.327442	68.778039	955.558433	-458.906730	125.729634	890.445146	-462.713558	158.731772	907.010279	-461.253775	144.708119	804.105850	-448.904789	218.757040	696.338941	-432.101245	224.412750	686.629499	-310.836035	141.079541	539.612194	-452.789051	134.756959	456.966556	-435.041199	83.175244	381.947629	-425.626081	164.473861	448.543343	-410.003024	32.766421	265.674882	-404.055389	69.676466	276.178612	-315.188721	-34.089203	221.403670	-354.110015	274.256978	192.556365	-362.108455	182.809949	197.522803	-318.304520	151.577709	176.382262	-431.721203	-218.150322	943.956190	-235.132093	-11.942191	80.784415	-435.569436	-12.007678	80.969095	-35.139524	
1503	7.5150	465.102583	1440.635999	-97.904554	439.783234	1453.802690	-420.181661	373.399947	1526.825722	-251.699355	417.321484	1359.683118	-256.691600	521.907843	1191.050041	32.053235	721.929871	986.478982	-35.147151	504.004849	1194.857656	-513.111858	714.135230	976.662490	-471.379111	-118.827461	1194.834108	-243.608933	53.410236	1228.876428	-425.997751	51.209670	1235.477292	-61.416257	77.643853	1156.203308	-387.508297	77.279337	1174.826122	-107.614233	-95.342288	1248.754875	-200.543304	-88.627108	1245.891437	-283.609707	9.102035	1153.901700	-47.076427	-0.410332	1100.055735	-440.119462	142.022005	1076.708581	-29.211431	230.949623	1076.807646	-29.184909	307.017289	1035.909289	-31.244869	240.243066	1110.121389	-44.147226	423.394514	972.980368	-52.920235	430.113239	958.171359	-179.599428	350.270129	825.016988	-36.375350	329.436050	741.283278	-52.576003	264.078008	678.806231	-58.427116	354.336915	729.232026	-78.888472	195.861629	566.640672	-79.749385	222.802053	575.878736	-169.098814	125.322768	522.735056	-121.483883	436.240063	505.393500	-117.574642	315.722607	495.395760	-49.707198	342.757073	508.021380	-163.289671	68.942053	954.800033	-458.834353	125.912219	889.599407	-462.649634	158.958706	905.959992	-460.812859	144.892991	803.255902	-448.762823	218.865887	695.577102	-431.997336	224.309117	685.916841	-310.647664	140.969153	539.033232	-452.553616	134.604549	456.354468	-434.945879	82.957883	381.367470	-425.529625	164.308625	447.915319	-409.938734	32.492302	265.087778	-404.000239	69.280806	275.638171	-315.059990	-34.271695	220.520271	-353.949071	274.192937	192.845202	-362.131733	182.712357	197.436401	-318.217105	151.546916	176.198756	-431.715278	-218.219521	943.938837	-235.307344	-11.933943	80.767268	-435.586182	-12.004795	80.986879	-35.136293	
